<svg width="1080" height="400" viewBox="0 0 1080 400" fill="none" xmlns="http://www.w3.org/2000/svg">
<rect width="1080" height="400" fill="white"/>
<path d="M56.64 258.52C58.4 258.68 60.4 258.84 62.64 259C65.04 259 67.84 259 71.04 259C89.76 259 103.6 254.28 112.56 244.84C121.68 235.4 126.24 222.36 126.24 205.72C126.24 188.28 121.92 175.08 113.28 166.12C104.64 157.16 90.96 152.68 72.24 152.68C69.68 152.68 67.04 152.76 64.32 152.92C61.6 152.92 59.04 153.08 56.64 153.4V258.52ZM164.88 205.72C164.88 220.12 162.64 232.68 158.16 243.4C153.68 254.12 147.28 263 138.96 270.04C130.8 277.08 120.8 282.36 108.96 285.88C97.12 289.4 83.84 291.16 69.12 291.16C62.4 291.16 54.56 290.84 45.6 290.2C36.64 289.72 27.84 288.6 19.2 286.84V124.84C27.84 123.24 36.8 122.2 46.08 121.72C55.52 121.08 63.6 120.76 70.32 120.76C84.56 120.76 97.44 122.36 108.96 125.56C120.64 128.76 130.64 133.8 138.96 140.68C147.28 147.56 153.68 156.36 158.16 167.08C162.64 177.8 164.88 190.68 164.88 205.72ZM241.993 264.04C245.513 264.04 248.873 263.96 252.073 263.8C255.273 263.64 257.833 263.4 259.753 263.08V235.96C258.313 235.64 256.153 235.32 253.273 235C250.393 234.68 247.753 234.52 245.353 234.52C241.993 234.52 238.793 234.76 235.753 235.24C232.873 235.56 230.313 236.28 228.073 237.4C225.833 238.52 224.073 240.04 222.793 241.96C221.513 243.88 220.873 246.28 220.873 249.16C220.873 254.76 222.713 258.68 226.393 260.92C230.233 263 235.433 264.04 241.993 264.04ZM239.113 159.4C249.673 159.4 258.473 160.6 265.513 163C272.553 165.4 278.153 168.84 282.313 173.32C286.633 177.8 289.673 183.24 291.433 189.64C293.193 196.04 294.073 203.16 294.073 211V285.4C288.953 286.52 281.833 287.8 272.713 289.24C263.593 290.84 252.553 291.64 239.593 291.64C231.433 291.64 223.993 290.92 217.273 289.48C210.713 288.04 205.033 285.72 200.233 282.52C195.433 279.16 191.753 274.84 189.193 269.56C186.633 264.28 185.353 257.8 185.353 250.12C185.353 242.76 186.793 236.52 189.673 231.4C192.713 226.28 196.713 222.2 201.673 219.16C206.633 216.12 212.313 213.96 218.713 212.68C225.113 211.24 231.753 210.52 238.633 210.52C243.273 210.52 247.353 210.76 250.873 211.24C254.553 211.56 257.513 212.04 259.753 212.68V209.32C259.753 203.24 257.913 198.36 254.233 194.68C250.553 191 244.153 189.16 235.033 189.16C228.953 189.16 222.953 189.64 217.033 190.6C211.113 191.4 205.993 192.6 201.673 194.2L197.113 165.4C199.193 164.76 201.753 164.12 204.793 163.48C207.993 162.68 211.433 162.04 215.113 161.56C218.793 160.92 222.633 160.44 226.633 160.12C230.793 159.64 234.953 159.4 239.113 159.4ZM362.169 289H326.409V162.76H362.169V289ZM365.529 126.28C365.529 132.84 363.369 138.04 359.049 141.88C354.889 145.56 349.929 147.4 344.169 147.4C338.409 147.4 333.369 145.56 329.049 141.88C324.889 138.04 322.809 132.84 322.809 126.28C322.809 119.72 324.889 114.6 329.049 110.92C333.369 107.08 338.409 105.16 344.169 105.16C349.929 105.16 354.889 107.08 359.049 110.92C363.369 114.6 365.529 119.72 365.529 126.28ZM446.184 291.4C435.784 291.24 427.304 290.12 420.744 288.04C414.344 285.96 409.224 283.08 405.384 279.4C401.704 275.56 399.144 271 397.704 265.72C396.424 260.28 395.784 254.2 395.784 247.48V108.52L431.544 102.76V240.28C431.544 243.48 431.784 246.36 432.264 248.92C432.744 251.48 433.624 253.64 434.904 255.4C436.344 257.16 438.344 258.6 440.904 259.72C443.464 260.84 446.904 261.56 451.224 261.88L446.184 291.4ZM581.224 162.76C574.024 187.08 566.504 209.88 558.664 231.16C550.824 252.44 542.264 273.08 532.984 293.08C529.624 300.28 526.264 306.36 522.904 311.32C519.544 316.44 515.864 320.6 511.864 323.8C507.864 327.16 503.304 329.56 498.184 331C493.224 332.6 487.384 333.4 480.664 333.4C475.064 333.4 469.864 332.84 465.064 331.72C460.424 330.76 456.584 329.64 453.544 328.36L459.784 299.8C463.464 301.08 466.744 301.96 469.624 302.44C472.504 302.92 475.544 303.16 478.744 303.16C485.144 303.16 490.024 301.4 493.384 297.88C496.904 294.52 499.864 289.8 502.264 283.72C494.104 267.72 485.944 249.8 477.784 229.96C469.624 209.96 461.944 187.56 454.744 162.76H492.664C494.264 169 496.104 175.8 498.184 183.16C500.424 190.36 502.744 197.72 505.144 205.24C507.544 212.6 509.944 219.8 512.344 226.84C514.904 233.88 517.304 240.28 519.544 246.04C521.624 240.28 523.784 233.88 526.024 226.84C528.264 219.8 530.424 212.6 532.504 205.24C534.744 197.72 536.824 190.36 538.744 183.16C540.824 175.8 542.664 169 544.264 162.76H581.224Z" fill="#0F1136"/>
<path d="M653.12 120.76C677.92 120.76 696.96 125.16 710.24 133.96C723.52 142.6 730.16 156.84 730.16 176.68C730.16 196.68 723.44 211.16 710 220.12C696.56 228.92 677.36 233.32 652.4 233.32H640.64V289H603.2V125.08C611.36 123.48 620 122.36 629.12 121.72C638.24 121.08 646.24 120.76 653.12 120.76ZM655.52 152.68C652.8 152.68 650.08 152.76 647.36 152.92C644.8 153.08 642.56 153.24 640.64 153.4V201.4H652.4C665.36 201.4 675.12 199.64 681.68 196.12C688.24 192.6 691.52 186.04 691.52 176.44C691.52 171.8 690.64 167.96 688.88 164.92C687.28 161.88 684.88 159.48 681.68 157.72C678.64 155.8 674.88 154.52 670.4 153.88C665.92 153.08 660.96 152.68 655.52 152.68ZM791.013 289H755.253V162.76H791.013V289ZM794.373 126.28C794.373 132.84 792.213 138.04 787.893 141.88C783.733 145.56 778.773 147.4 773.013 147.4C767.253 147.4 762.213 145.56 757.893 141.88C753.733 138.04 751.653 132.84 751.653 126.28C751.653 119.72 753.733 114.6 757.893 110.92C762.213 107.08 767.253 105.16 773.013 105.16C778.773 105.16 783.733 107.08 787.893 110.92C792.213 114.6 794.373 119.72 794.373 126.28ZM818.628 225.88C818.628 216.76 820.068 208.2 822.948 200.2C825.988 192.04 830.308 185 835.908 179.08C841.508 173 848.308 168.2 856.308 164.68C864.308 161.16 873.428 159.4 883.668 159.4C890.388 159.4 896.548 160.04 902.148 161.32C907.748 162.44 913.188 164.12 918.468 166.36L911.028 194.92C907.668 193.64 903.988 192.52 899.988 191.56C895.988 190.6 891.508 190.12 886.548 190.12C875.988 190.12 868.068 193.4 862.788 199.96C857.668 206.52 855.108 215.16 855.108 225.88C855.108 237.24 857.508 246.04 862.308 252.28C867.268 258.52 875.828 261.64 887.988 261.64C892.308 261.64 896.948 261.24 901.908 260.44C906.868 259.64 911.428 258.36 915.588 256.6L920.628 285.88C916.468 287.64 911.268 289.16 905.028 290.44C898.788 291.72 891.908 292.36 884.388 292.36C872.868 292.36 862.948 290.68 854.628 287.32C846.308 283.8 839.428 279.08 833.988 273.16C828.708 267.24 824.788 260.28 822.228 252.28C819.828 244.12 818.628 235.32 818.628 225.88ZM980.388 208.36C983.908 204.52 987.508 200.52 991.188 196.36C995.028 192.2 998.708 188.12 1002.23 184.12C1005.75 179.96 1009.03 176.04 1012.07 172.36C1015.27 168.68 1017.99 165.48 1020.23 162.76H1062.71C1054.23 172.52 1045.91 181.88 1037.75 190.84C1029.75 199.64 1020.95 208.76 1011.35 218.2C1016.15 222.52 1021.11 227.72 1026.23 233.8C1031.35 239.72 1036.31 245.88 1041.11 252.28C1045.91 258.68 1050.31 265.08 1054.31 271.48C1058.31 277.88 1061.67 283.72 1064.39 289H1023.35C1020.79 284.84 1017.83 280.28 1014.47 275.32C1011.27 270.2 1007.83 265.16 1004.15 260.2C1000.47 255.08 996.548 250.2 992.388 245.56C988.388 240.92 984.388 237 980.388 233.8V289H944.628V108.52L980.388 102.76V208.36Z" fill="#008D70"/>
</svg>
