<?xml version="1.0" encoding="utf-8"?><svg version="1.1" id="Layer_1" xmlns="http://www.w3.org/2000/svg" xmlns:xlink="http://www.w3.org/1999/xlink" x="0px" y="0px" viewBox="0 0 55.15 122.88" style="enable-background:new 0 0 55.15 122.88" xml:space="preserve"><g><path d="M12.55,0h30.04c1.28,0,2.45,0.52,3.3,1.37c0.84,0.84,1.37,2.01,1.37,3.29v6.99c0,1.28-0.52,2.45-1.37,3.3 c-0.84,0.84-2.01,1.37-3.3,1.37h-0.57c3.81,6.51,6.8,13.22,8.95,20.11c2.39,7.63,3.77,15.5,4.16,23.62c0,0.03,0,0.05,0,0.08h0.01 v48.95c0,0.07,0,0.14-0.01,0.21c-0.17,3.66-1.07,6.72-2.87,9.05c-1.87,2.42-4.63,3.97-8.44,4.52c-0.08,0.01-0.16,0.02-0.25,0.02v0 H11.91c-0.07,0-0.14,0-0.21-0.01c-3.5-0.15-6.14-1.34-8.08-3.39c-1.9-2.02-3.04-4.81-3.59-8.23c-0.01-0.09-0.02-0.18-0.02-0.27H0 v-50.7c0-0.08,0-0.15,0.01-0.22C0.7,51.32,2.21,43.21,4.4,35.77c2.1-7.12,4.82-13.62,8.04-19.45c-1.24-0.03-2.36-0.55-3.18-1.37 c-0.84-0.84-1.37-2.01-1.37-3.3V4.66c0-1.28,0.52-2.45,1.37-3.29C10.1,0.52,11.27,0,12.55,0L12.55,0z M38.34,16.93l-22.34,0.16 c-3.33,5.86-6.14,12.43-8.27,19.66c-2.12,7.2-3.59,15.07-4.25,23.56v50.55c0.45,2.65,1.3,4.77,2.66,6.22 c1.31,1.39,3.16,2.2,5.68,2.3c0.02,0,0.05,0,0.07,0h31.57c2.78-0.42,4.75-1.52,6.04-3.18c1.34-1.73,2.01-4.12,2.14-7.07l0-0.06 V60.13h0c-0.38-7.78-1.71-15.33-4.01-22.66C45.44,30.41,42.34,23.56,38.34,16.93L38.34,16.93z M42.59,3.49H12.55 c-0.32,0-0.61,0.13-0.83,0.35c-0.21,0.21-0.35,0.51-0.35,0.83v6.99c0,0.32,0.13,0.61,0.35,0.83c0.21,0.21,0.51,0.35,0.83,0.35 h30.04c0.32,0,0.61-0.13,0.83-0.35c0.21-0.21,0.35-0.51,0.35-0.83V4.66c0-0.32-0.13-0.61-0.35-0.83 C43.21,3.62,42.91,3.49,42.59,3.49L42.59,3.49z"/></g></svg>