<?xml version="1.0" encoding="utf-8"?><svg version="1.1" id="Layer_1" xmlns="http://www.w3.org/2000/svg" xmlns:xlink="http://www.w3.org/1999/xlink" x="0px" y="0px" viewBox="0 0 104 122.88" style="enable-background:new 0 0 104 122.88" xml:space="preserve"><g><path d="M61.64,0.59c0.91-0.84,2.33-0.78,3.17,0.13c0.84,0.91,0.78,2.33-0.13,3.17c-3.99,3.69-6.95,8.15-8.7,13.5 c-1.62,4.92-2.24,10.62-1.74,17.18c0.83-0.07,1.66-0.17,2.49-0.31c1.5-0.25,3.01-0.64,4.53-1.16l0,0c0.08-0.03,0.16-0.05,0.24-0.07 c5.03-1.13,9.55-1.44,13.63-1.04c4.16,0.4,7.84,1.54,11.12,3.3C96.87,41,102.02,49.4,103.53,58.79c1.81,11.31-1.8,23.96-7.49,34.85 c-2.68,5.13-7.09,12.07-12.19,17.74c-3.91,4.35-8.28,8-12.71,9.66c-3.57,1.34-7.02,1.71-10.36,1.38c-2.93-0.29-5.76-1.13-8.49-2.33 c-3.59,1.8-7.34,2.87-11.31,2.79c-4.37-0.09-8.92-1.57-13.69-4.99l0-0.01c-0.06-0.04-0.12-0.09-0.17-0.14 c-4.75-4.15-8.64-8.5-11.97-12.91c-3.31-4.38-6.08-8.84-8.58-13.24C1.47,82.66-0.5,73.02,0.11,64.15 c0.51-7.47,2.85-14.42,6.69-19.98c3.91-5.65,9.37-9.86,16.05-11.75c5.6-1.59,12.02-1.54,19.06,0.67l0,0.01 c1.72,0.52,3.45,0.93,5.16,1.19c0.89,0.14,1.77,0.24,2.66,0.3c-0.29-4.15-0.17-7.99,0.34-11.55c-5.77,3.27-11.11,4.49-16.05,3.89 C21.93,25.45,16.07,15.39,11.33,5.53l6.48-0.68c17-2.6,27.15,3.24,33,14.36c0.26-1.09,0.56-2.16,0.9-3.19 C53.71,9.89,57.09,4.8,61.64,0.59L61.64,0.59z M16.66,81.92c-0.39-1.17,0.24-2.45,1.42-2.84c1.17-0.39,2.45,0.24,2.84,1.42 c1.27,3.79,3.16,7.19,5.52,10.3c2.4,3.14,5.29,5.98,8.51,8.61c0.96,0.78,1.11,2.19,0.33,3.16c-0.78,0.96-2.19,1.11-3.16,0.33 c-3.49-2.85-6.63-5.93-9.25-9.37C20.22,90.05,18.09,86.22,16.66,81.92L16.66,81.92z M52.4,39.16c-0.13,0.01-0.26,0.01-0.38,0 c-1.88,0.01-3.76-0.14-5.64-0.44c-1.94-0.3-3.87-0.75-5.8-1.34l-0.02-0.01l0,0.01c-6.17-1.94-11.72-2-16.51-0.64 c-5.63,1.6-10.24,5.17-13.57,9.98c-3.39,4.89-5.45,11.06-5.9,17.73c-0.55,8.05,1.25,16.8,5.88,24.93 c2.41,4.23,5.07,8.52,8.26,12.75c3.14,4.16,6.79,8.25,11.21,12.13c3.98,2.84,7.66,4.07,11.12,4.14c3.49,0.07,6.84-1.01,10.09-2.77 c0.65-0.36,1.4-0.35,2.03-0.06l0,0c2.62,1.24,5.3,2.11,8.04,2.39c2.69,0.27,5.46-0.03,8.34-1.11c3.67-1.38,7.46-4.59,10.95-8.47 c4.85-5.38,9.02-11.95,11.55-16.8c5.3-10.14,8.68-21.81,7.04-32.07c-1.29-8.06-5.75-15.29-14.96-20.22 c-2.77-1.49-5.9-2.45-9.44-2.79c-3.58-0.35-7.58-0.07-12.07,0.92c-1.71,0.58-3.43,1.01-5.16,1.31 C55.8,38.98,54.11,39.13,52.4,39.16L52.4,39.16z"/></g></svg>