<?xml version="1.0" encoding="utf-8"?><svg version="1.1" id="Layer_1" xmlns="http://www.w3.org/2000/svg" xmlns:xlink="http://www.w3.org/1999/xlink" x="0px" y="0px" viewBox="0 0 122.88 103.72" style="enable-background:new 0 0 122.88 103.72" xml:space="preserve"><style type="text/css">.st0{fill-rule:evenodd;clip-rule:evenodd;}</style><g><path class="st0" d="M40.16,10.19c-0.45-0.67-0.89-1.35-1.16-2.11c-0.22-0.6-0.34-1.24-0.28-1.95c-0.22,0.55-0.42,1.1-0.62,1.66 c-0.81,2.31-1.63,5.12,0.3,7.13c0.56,0.59,1.31,0.93,2.15,0.69c0.73-0.21,1.26-0.89,1.22-1.93C41.72,12.31,40.89,11.27,40.16,10.19 L40.16,10.19L40.16,10.19z M36.85,88.54c1.72,0.4,8.22,0.85,10.85,0.85l3.28-30.38c-0.85-0.91-1.49-1.8-1.95-2.68 c-1.48-2.85-1.22-5.5,0.14-7.91c1.17-2.08,3.18-3.88,5.52-5.41c3.56-2.32,7.93-4.02,10.98-4.98c1.52-0.48,3.16-0.88,4.87-1.21 c-1.56-0.09-2.59-0.17-2.75-0.2c-5.85,0.04-11.54,0.75-16.1,2.18c-2.76,0.86-6.68,2.38-9.78,4.41c-1.73,1.13-3.17,2.38-3.92,3.71 c-0.56,1-0.67,2.1-0.06,3.27c0.36,0.68,0.91,1.4,1.7,2.14c0.62,0.5,0.98,1.3,0.89,2.16L36.85,88.54L36.85,88.54L36.85,88.54z M95.31,60.07c0.96,0.59,1.15,2.04,0.42,3.23c-0.73,1.19-2.11,1.68-3.07,1.08c-0.96-0.59-1.15-2.04-0.42-3.23 C92.97,59.97,94.35,59.48,95.31,60.07L95.31,60.07z M87.35,55.26c0.36,0.22,0.43,0.75,0.16,1.19c-0.27,0.44-0.78,0.62-1.13,0.4 c-0.36-0.22-0.43-0.75-0.16-1.19C86.48,55.22,86.99,55.05,87.35,55.26L87.35,55.26z M84.4,64.27c0.7,0.43,0.84,1.48,0.3,2.34 c-0.53,0.86-1.53,1.21-2.23,0.78c-0.7-0.43-0.84-1.48-0.3-2.34C82.7,64.19,83.7,63.84,84.4,64.27L84.4,64.27L84.4,64.27z M100.29,68.59c0.7,0.43,0.84,1.48,0.3,2.34c-0.53,0.86-1.53,1.22-2.23,0.79c-0.7-0.43-0.84-1.48-0.3-2.34 C98.59,68.51,99.59,68.16,100.29,68.59L100.29,68.59L100.29,68.59z M107.58,61.88c0.72,0.45,0.87,1.53,0.32,2.43 c-0.55,0.9-1.58,1.26-2.31,0.81c-0.72-0.45-0.87-1.53-0.32-2.43C105.82,61.8,106.86,61.44,107.58,61.88L107.58,61.88L107.58,61.88z M104.1,54.62c0.72,0.45,0.87,1.53,0.32,2.43c-0.55,0.9-1.58,1.26-2.31,0.81c-0.72-0.45-0.87-1.53-0.32-2.43 C102.35,54.54,103.38,54.18,104.1,54.62L104.1,54.62L104.1,54.62z M47.17,94.31l-13.09,0.62c-7.44,0.35-11.51-2.17-19.39-1.8 c-1.34,0.06-2.49-0.98-2.55-2.32c-0.01-0.13,0-0.25,0.01-0.37l0,0l4.01-37.13c-0.85-0.91-1.49-1.8-1.95-2.68 c-1.48-2.85-1.22-5.5,0.14-7.91c0.48-0.86,1-1.65,1.56-2.39c-1.79-0.49-3.15-2.13-4.27-3.6c-0.36-0.47-0.71-0.95-1.05-1.43 c0.57,0.44,1.16,0.7,1.78,0.84c0.78,0.18,1.59,0.2,2.4,0.19l0,0c1.3-0.01,2.63-0.13,3.8,0.58c0.12,0.07,0.22,0.15,0.32,0.23 c0.54-0.46,1.09-0.89,1.66-1.29l0-0.08c0.06-1.37,0.89-2.41,1.63-3.48v0c0.46-0.67,0.9-1.35,1.18-2.1c0.22-0.6,0.34-1.24,0.29-1.95 c0.21,0.55,0.42,1.11,0.61,1.67c0.38,1.1,0.75,2.31,0.84,3.49c0.78-0.32,1.58-0.6,2.39-0.86c-0.01-1.27,0.34-2.6,0.69-3.8 c0.17-0.57,0.35-1.13,0.54-1.69c-0.02,0.72,0.13,1.35,0.38,1.94c0.31,0.74,0.78,1.4,1.27,2.05l0,0c0.16,0.22,0.33,0.44,0.5,0.65 c0.63-0.13,1.27-0.25,1.92-0.35c-0.56-0.02-1.07-0.29-1.49-0.69c-2.02-1.91-1.34-4.76-0.65-7.1c0.17-0.57,0.35-1.13,0.54-1.69 c-0.02,0.72,0.13,1.35,0.38,1.94c0.31,0.74,0.78,1.4,1.27,2.05v0c0.78,1.04,1.66,2.04,1.78,3.41c0.09,1.03-0.41,1.74-1.12,1.99 c0.78-0.11,1.56-0.21,2.34-0.29c0.15-0.28,0.38-0.56,0.71-0.79c1.12-0.8,2.45-0.78,3.75-0.86l0,0c0.81-0.05,1.62-0.12,2.38-0.36 c0.61-0.19,1.19-0.49,1.72-0.97c-0.3,0.51-0.62,1.01-0.94,1.51c-0.23,0.35-0.47,0.72-0.73,1.08c0.3-0.01,0.6-0.01,0.9-0.02 c3.85-0.24,7.98-0.29,12.08-0.15c3.36,0.12,6.71,0.36,9.89,0.73c12.41,0.82,24.05,2.43,29.05,4.5c0.56,0.23,0.9,0.43,1.07,0.61 c5.32,0.64,10.36,1.81,14.45,3.5c0.94,0.39,1.51,1.29,1.51,2.25c1.71,0.37,3.34,0.87,4.87,1.5c0.43,0.18,0.84,0.38,1.22,0.59 c0.05,0.03,0.1,0.06,0.15,0.09c2.37,1.39,3.9,3.5,4.58,5.88c0.68,2.36,0.51,4.97-0.48,7.37c-0.13,0.33-0.28,0.64-0.44,0.96 l-6.89,36.43c-0.2,1.05-1.05,1.82-2.05,1.97v0l-48.96,6.96c-1.33,0.19-2.57-0.74-2.76-2.07c-0.03-0.24-0.03-0.47,0-0.7h0l0.41-2.79 c-3.95,0.29-7.85,0.44-11.74,0.69c-1.34,0.08-2.5-0.94-2.59-2.28c-0.01-0.16,0-0.32,0.02-0.48L47.17,94.31L47.17,94.31L47.17,94.31 z M60.04,93.27c0.18-0.01,0.37,0,0.54,0.03l0.35-0.03c0.37-0.03,0.72,0.03,1.04,0.15l4.23-28.89c-0.83-0.89-1.46-1.77-1.91-2.64 c-1.48-2.85-1.22-5.5,0.14-7.91c1.17-2.08,3.18-3.88,5.52-5.41c3.56-2.32,7.93-4.02,10.98-4.98c2.84-0.89,5.71-1.43,8.55-1.79 c1.91-0.24,3.75-0.4,5.55-0.52c-8.28-1.3-17.38-0.87-24.66,1.4c-2.76,0.86-6.68,2.38-9.78,4.41c-1.73,1.12-3.17,2.38-3.92,3.71 c-0.56,1-0.67,2.1-0.06,3.27c0.35,0.68,0.91,1.4,1.7,2.14c0.62,0.5,0.98,1.3,0.89,2.16L55.4,93.62L60.04,93.27L60.04,93.27 L60.04,93.27z M75.13,64.04L70.1,99.97l41.26-5.86L118,57.06h0c0.05-0.26,0.14-0.51,0.28-0.75c0.15-0.26,0.28-0.52,0.38-0.78 c0.9-2.18,0.58-6.07-1.63-7.38c-0.04-0.02-0.08-0.04-0.11-0.06c-0.21-0.12-0.44-0.23-0.67-0.33c-10.17-2.51-35.01,0.42-42.65,8.61 c-0.56,1-0.67,2.1-0.06,3.27C74.35,61.24,75.45,61.81,75.13,64.04L75.13,64.04L75.13,64.04z M5.36,14.76 C3.34,12.17,1.71,9.38,0,6.46c1.16,2.81,2.34,5.58,3.94,8.28L5.36,14.76L5.36,14.76L5.36,14.76z M10.31,12.07 c-0.9-3.16-2.03-6.29-3.38-9.39c1.66,2.5,3.01,5.3,4.21,8.24L10.31,12.07L10.31,12.07z M2.29,2.09c2.15,5.03,1.61,5.73,2.76,9.86 c0.2,0.72,0.4,1.39,0.84,1.89c0.25,0.28,0.57,0.52,1,0.67c1.81,0.63,2.67-0.48,2.83-2.14c-0.03-0.54-0.26-1.11-0.64-1.68 C8.58,9.95,7.8,9.19,6.84,8.49C4.42,6.73,3.8,4.74,2.29,2.09L2.29,2.09L2.29,2.09z M12.22,30.97c-0.81-0.02-1.62-0.05-2.39-0.26 c-0.61-0.16-1.21-0.44-1.76-0.9c0.33,0.49,0.66,0.98,1,1.46c1.42,1.99,3.25,4.27,6,3.86c0.81-0.12,1.51-0.53,1.8-1.36 c0.25-0.71,0-1.54-0.88-2.11C14.85,30.92,13.52,31,12.22,30.97L12.22,30.97L12.22,30.97z M9.9,26.04 c-0.81-0.06-1.62-0.13-2.38-0.38c-0.61-0.2-1.18-0.5-1.71-0.98c0.3,0.51,0.61,1.01,0.93,1.51c1.32,2.06,3.03,4.43,5.8,4.15 c0.81-0.08,1.54-0.46,1.87-1.27c0.29-0.7,0.07-1.54-0.77-2.15C12.53,26.12,11.2,26.14,9.9,26.04L9.9,26.04L9.9,26.04z M7.24,20.89 c-0.81-0.02-1.62-0.07-2.39-0.28c-0.61-0.17-1.2-0.45-1.75-0.91c0.32,0.5,0.65,0.99,0.99,1.47c1.4,2,3.21,4.31,5.96,3.92 c0.81-0.11,1.52-0.52,1.82-1.34c0.26-0.71,0.01-1.54-0.85-2.12C9.88,20.86,8.54,20.93,7.24,20.89L7.24,20.89L7.24,20.89z M4.81,15.84c-0.81-0.1-1.61-0.21-2.36-0.5c-0.59-0.23-1.16-0.56-1.66-1.07c0.27,0.52,0.56,1.04,0.85,1.56 c1.22,2.12,2.81,4.58,5.58,4.44c0.82-0.04,1.56-0.38,1.93-1.17c0.32-0.68,0.15-1.53-0.66-2.19C7.43,16.05,6.1,16,4.81,15.84 L4.81,15.84L4.81,15.84z M19.52,27.2c0.46-0.67,0.9-1.35,1.18-2.1c0.22-0.6,0.34-1.24,0.29-1.95c0.21,0.55,0.42,1.11,0.61,1.67 c0.79,2.32,1.59,5.13-0.34,7.12c-0.57,0.59-1.31,0.92-2.15,0.68c-0.73-0.21-1.25-0.9-1.21-1.94C17.95,29.31,18.78,28.28,19.52,27.2 L19.52,27.2L19.52,27.2z M16.84,22.11c0.46-0.67,0.9-1.35,1.18-2.1c0.22-0.6,0.34-1.24,0.29-1.95c0.21,0.55,0.42,1.11,0.61,1.67 c0.79,2.31,1.59,5.13-0.35,7.12c-0.57,0.59-1.31,0.92-2.15,0.68c-0.73-0.21-1.25-0.9-1.21-1.94 C15.27,24.22,16.11,23.18,16.84,22.11L16.84,22.11L16.84,22.11z M14.26,16.98c0.46-0.67,0.9-1.35,1.18-2.1 c0.22-0.6,0.34-1.24,0.29-1.95c0.21,0.55,0.42,1.11,0.61,1.67c0.79,2.31,1.59,5.13-0.35,7.12c-0.57,0.59-1.31,0.92-2.15,0.68 c-0.73-0.21-1.25-0.9-1.21-1.94C12.68,19.09,13.52,18.06,14.26,16.98L14.26,16.98L14.26,16.98z M11.51,11.89 c0.42-0.69,0.83-1.39,1.07-2.16c0.19-0.61,0.28-1.25,0.19-1.96c0.24,0.54,0.47,1.08,0.69,1.64c0.91,2.27,1.85,5.04,0.01,7.13 c-0.54,0.61-1.26,0.99-2.12,0.79c-0.74-0.17-1.29-0.83-1.31-1.88C10.05,14.07,10.83,13,11.51,11.89L11.51,11.89L11.51,11.89z M46.43,12.79c1.91-2.67,3.41-5.53,5-8.52c-1.03,2.86-2.1,5.68-3.58,8.45L46.43,12.79L46.43,12.79L46.43,12.79z M41.37,10.31 c0.76-3.19,1.76-6.37,2.97-9.53c-1.55,2.57-2.78,5.43-3.85,8.41L41.37,10.31L41.37,10.31L41.37,10.31z M48.95,0 c-1.93,5.12-1.36,5.8-2.34,9.98c-0.17,0.72-0.34,1.4-0.75,1.92c-0.23,0.3-0.54,0.54-0.97,0.71c-1.78,0.71-2.69-0.37-2.92-2.01 c0.01-0.54,0.21-1.12,0.57-1.7c0.47-0.78,1.22-1.57,2.14-2.3C47.02,4.73,47.56,2.71,48.95,0L48.95,0L48.95,0z M42.38,24.26 c0.81-0.09,1.61-0.2,2.36-0.48c0.6-0.22,1.16-0.55,1.67-1.06c-0.28,0.52-0.56,1.04-0.86,1.55c-1.23,2.11-2.84,4.56-5.61,4.4 c-0.82-0.05-1.56-0.39-1.92-1.18c-0.32-0.69-0.14-1.53,0.67-2.18C39.76,24.45,41.09,24.41,42.38,24.26L42.38,24.26L42.38,24.26z M44.81,19c0.81-0.06,1.62-0.14,2.38-0.39c0.6-0.2,1.18-0.5,1.71-0.99c-0.3,0.51-0.61,1.02-0.92,1.52 c-1.32,2.06-3.02,4.44-5.78,4.17c-0.81-0.08-1.54-0.45-1.87-1.26c-0.29-0.7-0.08-1.54,0.76-2.15C42.18,19.08,43.52,19.09,44.81,19 L44.81,19L44.81,19z M47.03,13.85c0.8-0.13,1.6-0.28,2.33-0.6c0.58-0.25,1.13-0.61,1.61-1.14c-0.25,0.54-0.51,1.07-0.78,1.59 c-1.13,2.17-2.61,4.69-5.39,4.68c-0.82-0.01-1.57-0.31-1.98-1.09c-0.35-0.67-0.22-1.53,0.56-2.21 C44.42,14.17,45.74,14.06,47.03,13.85L47.03,13.85L47.03,13.85z M35.28,20.63c-0.49-0.65-0.96-1.31-1.27-2.05 c-0.25-0.59-0.4-1.22-0.38-1.94c-0.19,0.56-0.37,1.12-0.54,1.69c-0.69,2.35-1.37,5.19,0.65,7.1c0.59,0.56,1.35,0.87,2.18,0.59 c0.72-0.24,1.21-0.95,1.12-1.99C36.94,22.67,36.06,21.67,35.28,20.63L35.28,20.63L35.28,20.63z M37.64,15.39 c-0.49-0.65-0.96-1.31-1.27-2.05c-0.25-0.59-0.4-1.22-0.38-1.94c-0.19,0.56-0.37,1.12-0.54,1.69c-0.69,2.35-1.37,5.19,0.65,7.1 c0.59,0.56,1.35,0.87,2.18,0.58c0.72-0.24,1.21-0.95,1.12-1.99C39.3,17.43,38.42,16.44,37.64,15.39L37.64,15.39L37.64,15.39z"/></g></svg>